<svg xmlns="http://www.w3.org/2000/svg" xmlns:xlink="http://www.w3.org/1999/xlink"><symbol id="account" viewBox="0 0 20 19"><g fill="none">
  <path d="M15.806 6.51997C15.806 9.75856 13.1821 12.3263 9.9289 12.3263C6.67572 12.3263 4.05176 9.75856 4.05176 6.51997C4.05176 3.27411 6.68304 0.642822 9.9289 0.642822C13.1748 0.642822 15.806 3.27411 15.806 6.51997Z" stroke="currentColor"/>
  <path d="M1.14282 18.0743V18.0743C4.96511 11.061 15.0348 11.061 18.8571 18.0743V18.0743" stroke="currentColor"/>
</g></symbol><symbol id="add" viewBox="0 0 14 14"><g fill="none">
  <path d="M1 7H13" stroke="currentColor" stroke-width="2" stroke-linecap="round" stroke-linejoin="round"/>
  <path d="M7 1L7 13" stroke="currentColor" stroke-width="2" stroke-linecap="round" stroke-linejoin="round"/>
</g></symbol><symbol id="bag" viewBox="0 0 20 18"><g fill="none">
  <path d="M6.85711 3.62496C7.43524 -0.26429 13.0339 -0.247719 13.7143 3.62496M17.4183 5.3396L18.8334 14.4385C18.8781 14.7265 18.8595 15.0206 18.7786 15.3008C18.6978 15.581 18.5568 15.8406 18.3651 16.0618C18.1735 16.283 17.9358 16.4606 17.6684 16.5825C17.4009 16.7043 17.11 16.7676 16.8156 16.7678H3.18642C2.8918 16.7679 2.60066 16.7048 2.33295 16.5831C2.06525 16.4614 1.82731 16.2838 1.63546 16.0626C1.4436 15.8413 1.30237 15.5816 1.22143 15.3013C1.1405 15.021 1.12178 14.7267 1.16657 14.4385L2.58159 5.3396C2.65581 4.862 2.90043 4.42649 3.27114 4.11196C3.64185 3.79742 4.11414 3.62466 4.60246 3.62496H15.3995C15.8877 3.6249 16.3597 3.79778 16.7302 4.11229C17.1007 4.4268 17.3452 4.86217 17.4194 5.3396H17.4183Z" stroke="currentColor" stroke-linejoin="round"/>
</g></symbol><symbol id="burger-menu" viewBox="0 0 32 11"><g fill="none">
  <line y1="1.25" x2="32" y2="1.25" stroke="currentColor" stroke-width="1.5"/>
  <line x1="14" y1="10.25" x2="32" y2="10.25" stroke="currentColor" stroke-width="1.5"/>
</g></symbol><symbol id="close" viewBox="0 0 16 16"><g fill="none">
  <path d="M14.5 1.5L1.5 14.5" stroke="currentColor" stroke-width="1.5"/>
  <path d="M1.5 1.5L14.5 14.5" stroke="currentColor" stroke-width="1.5"/>
</g></symbol><symbol id="favorite" viewBox="0 0 18 17"><g fill="none">
  <path d="M15.9089 8.82181L9.00774 15.7143L2.10655 8.82181C1.65135 8.37512 1.2928 7.83824 1.05347 7.24495C0.814146 6.65166 0.699226 6.01483 0.715951 5.37456C0.732676 4.73429 0.880683 4.10444 1.15065 3.52468C1.42062 2.94492 1.8067 2.42782 2.28459 2.00592C2.76247 1.58402 3.32181 1.26648 3.92737 1.07328C4.53293 0.880079 5.1716 0.815414 5.80317 0.883353C6.43473 0.951292 7.0455 1.15036 7.59702 1.46803C8.14854 1.7857 8.62886 2.21509 9.00774 2.72915C9.38825 2.21882 9.86913 1.79319 10.4203 1.47889C10.9714 1.16459 11.581 0.968394 12.2107 0.902578C12.8405 0.836762 13.477 0.902743 14.0804 1.09639C14.6837 1.29004 15.2409 1.60719 15.7171 2.02799C16.1933 2.44879 16.5783 2.96418 16.8479 3.5419C17.1175 4.11962 17.2659 4.74725 17.2839 5.38549C17.3019 6.02373 17.1891 6.65884 16.9525 7.25109C16.7159 7.84333 16.3606 8.37996 15.9089 8.82737" stroke="currentColor" stroke-linecap="round" stroke-linejoin="round"/>
</g></symbol><symbol id="search" viewBox="0 0 18 18"><g fill="none">
  <path d="M13.6033 13.6031L17.2858 17.2857" stroke="currentColor" stroke-linejoin="round"/>
  <path d="M15.4444 8.07927C15.4444 12.1469 12.147 15.4443 8.07939 15.4443C4.01179 15.4443 0.714355 12.1469 0.714355 8.07927C0.714355 4.01167 4.01179 0.714233 8.07939 0.714233C12.147 0.714233 15.4444 4.01167 15.4444 8.07927Z" stroke="currentColor"/>
</g></symbol><symbol id="subtract" viewBox="0 0 14 2"><g fill="none">
  <path d="M1 1H13" stroke="currentColor" stroke-width="2" stroke-linecap="round" stroke-linejoin="round"/>
</g></symbol></svg>